<?xml version="1.0" encoding="UTF-8"?>
<svg id="Camada_1" xmlns="http://www.w3.org/2000/svg" version="1.1" viewBox="0 0 500 500">
  <!-- Generator: Adobe Illustrator 30.3.0, SVG Export Plug-In . SVG Version: 2.1.3 Build 182)  -->
  <defs>
    <style>
      .st0 {
        opacity: .27;
      }

      .st1 {
        fill: #fff;
      }
    </style>
  </defs>
  <g class="st0">
    <g>
      <path class="st1" d="M10.86,263.7c1.17,1.9,3.2,2.94,5.28,2.94,1.11,0,2.23-.3,3.24-.92,2.91-1.79,3.82-5.61,2.02-8.52-.08-.13-.15-.25-.23-.38-.79-1.36-1.39-2.86-1.8-4.45-.85-3.31-4.22-5.31-7.53-4.46-3.31.85-5.31,4.22-4.46,7.53.69,2.68,1.72,5.23,3.07,7.57.13.23.27.46.41.69Z"/>
      <path class="st1" d="M17.12,226.59c.9.46,1.86.68,2.81.68,2.25,0,4.43-1.24,5.52-3.38.98-1.92,2.07-3.9,3.25-5.91,1.74-2.95.76-6.74-2.19-8.48-2.95-1.74-6.74-.76-8.48,2.19-1.31,2.22-2.53,4.43-3.62,6.57-1.55,3.05-.34,6.78,2.71,8.33Z"/>
      <path class="st1" d="M43.6,193.51c1.74,0,3.46-.73,4.69-2.14,1.49-1.72,3.05-3.48,4.63-5.21,2.3-2.53,2.11-6.45-.42-8.75-2.53-2.3-6.45-2.11-8.75.42-1.65,1.81-3.28,3.65-4.83,5.44-2.24,2.59-1.96,6.5.63,8.74,1.17,1.01,2.61,1.51,4.05,1.51Z"/>
      <path class="st1" d="M252.61,214.63c1.03,0,2.07-.26,3.03-.8,2.21-1.24,4.43-2.5,6.65-3.78,2.97-1.7,3.99-5.49,2.29-8.45-1.7-2.96-5.49-3.99-8.45-2.29-2.18,1.25-4.37,2.49-6.54,3.72-2.98,1.68-4.04,5.45-2.36,8.43,1.14,2.02,3.24,3.16,5.4,3.16Z"/>
      <path class="st1" d="M414.62,67.98c0,.12-.01.23-.03.34-.7,3.35,1.46,6.63,4.8,7.32.42.09.85.13,1.27.13,2.87,0,5.45-2.01,6.06-4.93.19-.94.29-1.9.29-2.86,0-3.48-1.28-6.87-3.61-9.54-2.25-2.58-6.16-2.84-8.74-.59-2.58,2.25-2.84,6.16-.59,8.74.35.4.55.91.55,1.39Z"/>
      <path class="st1" d="M213.66,235.07c.91,0,1.84-.2,2.71-.63,2.28-1.11,4.56-2.24,6.86-3.39,3.06-1.53,4.3-5.25,2.76-8.31-1.53-3.06-5.25-4.3-8.31-2.76-2.25,1.13-4.5,2.24-6.74,3.33-3.07,1.5-4.35,5.21-2.85,8.28,1.07,2.2,3.28,3.48,5.57,3.48Z"/>
      <path class="st1" d="M181.86,153.56c-2.15,1.39-4.28,2.79-6.4,4.19-2.85,1.89-3.64,5.73-1.75,8.58,1.19,1.8,3.16,2.78,5.17,2.78,1.17,0,2.36-.33,3.41-1.03,2.08-1.38,4.18-2.75,6.3-4.12,2.87-1.86,3.69-5.69,1.83-8.56-1.86-2.87-5.69-3.69-8.56-1.83Z"/>
      <path class="st1" d="M145.34,178.69c-2.07,1.51-4.12,3.03-6.15,4.55-2.74,2.05-3.3,5.93-1.25,8.67,1.22,1.63,3.08,2.48,4.97,2.48,1.29,0,2.59-.4,3.7-1.23,2-1.49,4.01-2.98,6.05-4.47,2.76-2.02,3.36-5.89,1.34-8.65-2.02-2.76-5.89-3.36-8.65-1.34Z"/>
      <path class="st1" d="M258.64,109.36c-2.26,1.15-4.53,2.31-6.8,3.49-3.04,1.58-4.22,5.32-2.64,8.35,1.1,2.12,3.26,3.34,5.5,3.34.96,0,1.94-.22,2.85-.7,2.23-1.16,4.47-2.31,6.69-3.44,3.05-1.55,4.27-5.28,2.72-8.33-1.55-3.05-5.28-4.27-8.33-2.72Z"/>
      <path class="st1" d="M167.8,249.25c.98,2.4,3.29,3.85,5.73,3.85.78,0,1.58-.15,2.34-.46,2.37-.97,4.74-1.96,7.07-2.94,3.15-1.33,4.62-4.97,3.29-8.12-1.33-3.15-4.97-4.62-8.12-3.29-2.28.97-4.61,1.94-6.94,2.89-3.17,1.3-4.68,4.91-3.38,8.08Z"/>
      <path class="st1" d="M389.17,108.39c1.2,1.15,2.74,1.72,4.29,1.72,1.63,0,3.25-.64,4.47-1.91,1.81-1.88,3.59-3.78,5.29-5.64,2.31-2.52,2.14-6.44-.39-8.75-2.52-2.31-6.44-2.14-8.75.39-1.64,1.79-3.35,3.61-5.09,5.43-2.37,2.47-2.29,6.39.18,8.76Z"/>
      <path class="st1" d="M376.63,74.59c.57,0,1.15-.08,1.73-.25,2.41-.7,4.83-1.38,7.21-2.03,3.3-.9,5.24-4.31,4.34-7.61-.9-3.3-4.31-5.24-7.61-4.34-2.43.66-4.92,1.36-7.4,2.08-3.28.95-5.18,4.39-4.22,7.67.79,2.71,3.26,4.47,5.95,4.47Z"/>
      <path class="st1" d="M126.29,263.79c.83,2.64,3.27,4.33,5.9,4.33.62,0,1.24-.09,1.86-.29,2.4-.76,4.86-1.55,7.31-2.37,3.24-1.08,5-4.59,3.92-7.83-1.08-3.25-4.59-5-7.83-3.92-2.39.8-4.79,1.57-7.12,2.31-3.26,1.03-5.07,4.51-4.05,7.77Z"/>
      <path class="st1" d="M361.31,140.13c1.42,0,2.84-.48,4-1.47,1.98-1.68,3.93-3.36,5.82-5.01,2.58-2.25,2.84-6.16.59-8.74-2.25-2.58-6.16-2.84-8.74-.59-1.84,1.61-3.75,3.25-5.68,4.89-2.61,2.21-2.93,6.12-.72,8.73,1.22,1.44,2.97,2.19,4.73,2.19Z"/>
      <path class="st1" d="M290.35,192.03c1.14,0,2.29-.31,3.32-.97,2.16-1.38,4.3-2.76,6.43-4.15,2.86-1.87,3.67-5.71,1.8-8.57-1.87-2.86-5.7-3.67-8.57-1.8-2.09,1.36-4.2,2.72-6.32,4.08-2.88,1.84-3.73,5.67-1.89,8.55,1.18,1.85,3.18,2.86,5.23,2.86Z"/>
      <path class="st1" d="M334.92,88.54c.72,0,1.46-.13,2.18-.4,2.33-.88,4.7-1.75,7.05-2.6,3.22-1.17,4.88-4.72,3.71-7.93-1.17-3.22-4.72-4.88-7.93-3.71-2.39.87-4.8,1.76-7.18,2.65-3.2,1.2-4.82,4.78-3.62,7.98.93,2.48,3.29,4.01,5.8,4.01Z"/>
      <path class="st1" d="M298.72,90.4c-2.32,1.02-4.65,2.05-6.99,3.11-3.12,1.4-4.51,5.07-3.1,8.19,1.03,2.29,3.29,3.65,5.65,3.65.85,0,1.71-.18,2.54-.55,2.3-1.03,4.59-2.05,6.87-3.05,3.13-1.37,4.56-5.02,3.19-8.16-1.37-3.13-5.02-4.56-8.16-3.19Z"/>
      <path class="st1" d="M326.7,167.27c1.26,0,2.54-.39,3.64-1.19,2.06-1.5,4.14-3.03,6.16-4.54,2.74-2.05,3.31-5.93,1.26-8.67-2.05-2.74-5.93-3.31-8.67-1.26-1.99,1.48-4.02,2.98-6.05,4.46-2.76,2.01-3.37,5.89-1.36,8.65,1.21,1.66,3.1,2.55,5.01,2.55Z"/>
      <path class="st1" d="M219.67,130.46l-.93.53c-1.9,1.1-3.79,2.2-5.67,3.3-2.95,1.73-3.93,5.53-2.2,8.48,1.15,1.96,3.22,3.06,5.35,3.06,1.07,0,2.15-.28,3.13-.85,1.86-1.09,3.72-2.18,5.6-3.26l.91-.53c2.96-1.71,3.98-5.5,2.27-8.46-1.71-2.96-5.5-3.98-8.46-2.27Z"/>
      <path class="st1" d="M83.47,273.8c.54,3,3.15,5.1,6.09,5.1.36,0,.73-.03,1.1-.1,2.49-.45,5.05-.95,7.61-1.48,3.35-.7,5.5-3.98,4.8-7.33-.7-3.35-3.98-5.5-7.33-4.8-2.45.51-4.9.99-7.28,1.41-3.37.61-5.6,3.83-5,7.19Z"/>
      <path class="st1" d="M110.35,206c-1.95,1.63-3.92,3.3-5.85,4.95-2.6,2.23-2.9,6.14-.67,8.73,1.22,1.43,2.96,2.16,4.71,2.16,1.43,0,2.86-.49,4.03-1.49,1.89-1.62,3.82-3.25,5.73-4.85,2.62-2.19,2.97-6.1.78-8.72-2.19-2.62-6.1-2.97-8.72-.78Z"/>
      <path class="st1" d="M86.1,235.88c-2.4-2.44-6.32-2.48-8.76-.08-1.84,1.81-3.68,3.64-5.44,5.43-2.4,2.44-2.37,6.36.06,8.76,1.21,1.19,2.78,1.78,4.35,1.78s3.2-.62,4.41-1.85c1.72-1.74,3.5-3.52,5.3-5.29,2.44-2.4,2.48-6.32.08-8.76Z"/>
      <path class="st1" d="M43.38,283.6c1.13.87,2.45,1.29,3.77,1.29,1.86,0,3.69-.83,4.91-2.42.12-.15.24-.31.36-.46.25.01.51.02.76.03,3.42.12,6.29-2.56,6.41-5.97.06-1.62-.52-3.11-1.5-4.25-.2-1.51-.95-2.96-2.23-4-2.66-2.16-6.56-1.75-8.71.91-.12.15-.24.3-.37.45-.13-.01-.26-.03-.39-.04-3.4-.39-6.47,2.04-6.86,5.44-.21,1.79.38,3.49,1.47,4.75.17,1.63.97,3.2,2.38,4.28Z"/>
      <path class="st1" d="M23.07,303.89c-1.19,2.19-2.32,4.38-3.36,6.52-1.49,3.08-.21,6.78,2.86,8.28.87.42,1.79.62,2.7.62,2.3,0,4.5-1.28,5.57-3.49.95-1.96,1.99-3.98,3.09-6,1.64-3,.53-6.76-2.47-8.4-3-1.64-6.77-.53-8.4,2.47Z"/>
      <path class="st1" d="M16.35,358.54c3.41-.28,5.95-3.27,5.67-6.68-.09-1.1-.14-2.23-.14-3.37,0-.91.03-1.85.09-2.79.21-3.41-2.4-6.35-5.81-6.55-3.41-.21-6.35,2.4-6.55,5.81-.07,1.18-.11,2.36-.11,3.53,0,1.48.06,2.95.18,4.38.26,3.24,2.97,5.69,6.17,5.69.17,0,.34,0,.51-.02Z"/>
      <path class="st1" d="M143.35,14.34c1.06,0,2.14-.28,3.13-.85,1.1-.64,2.2-1.29,3.31-1.93,2.96-1.71,3.98-5.5,2.27-8.46-1.71-2.96-5.5-3.98-8.46-2.27-1.13.65-2.26,1.31-3.38,1.97-2.95,1.73-3.94,5.53-2.21,8.48,1.15,1.96,3.22,3.06,5.35,3.06Z"/>
      <path class="st1" d="M76.6,61.55c1.43,0,2.87-.49,4.04-1.5,1.72-1.48,3.5-2.99,5.3-4.48,2.63-2.18,3-6.09.81-8.72-2.18-2.63-6.09-2.99-8.72-.81-1.86,1.54-3.7,3.1-5.48,4.64-2.59,2.23-2.88,6.14-.64,8.73,1.22,1.42,2.95,2.15,4.69,2.15Z"/>
      <path class="st1" d="M26.92,145.55c-2.01,2.77-1.4,6.64,1.37,8.65,2.19,1.59,4.71,2.97,7.48,4.1.76.31,1.55.46,2.33.46,2.44,0,4.76-1.46,5.74-3.86,1.29-3.17-.23-6.78-3.4-8.07-1.85-.75-3.49-1.64-4.87-2.65-2.77-2.01-6.64-1.4-8.65,1.37Z"/>
      <path class="st1" d="M23.64,124.33c.68.24,1.38.36,2.06.36,2.55,0,4.94-1.59,5.84-4.13.67-1.88,1.5-3.87,2.47-5.9,1.48-3.09.17-6.78-2.91-8.26s-6.78-.17-8.26,2.91c-1.16,2.42-2.16,4.82-2.97,7.12-1.14,3.22.55,6.76,3.77,7.9Z"/>
      <path class="st1" d="M108.92,36.46c1.23,0,2.47-.37,3.56-1.13,1.86-1.31,3.79-2.64,5.73-3.96,2.83-1.93,3.56-5.78,1.63-8.61-1.93-2.83-5.78-3.56-8.61-1.63-1.99,1.35-3.97,2.72-5.88,4.07-2.8,1.97-3.47,5.83-1.5,8.63,1.21,1.71,3.12,2.63,5.07,2.63Z"/>
      <path class="st1" d="M43.45,88.79c1.17,1.01,2.61,1.5,4.04,1.5,1.74,0,3.47-.73,4.7-2.15,1.45-1.69,2.99-3.41,4.56-5.12,2.31-2.52,2.15-6.44-.37-8.75-2.52-2.31-6.44-2.15-8.75.37-1.66,1.81-3.29,3.63-4.83,5.42-2.23,2.59-1.94,6.5.66,8.73Z"/>
      <path class="st1" d="M66.51,159.23c.23,1.01.71,1.98,1.46,2.8,1.22,1.33,2.89,2.01,4.57,2.01,1.49,0,2.99-.54,4.18-1.62.46-.42.93-.85,1.4-1.27.66-.09,1.33-.18,2-.27,3.39-.48,5.74-3.62,5.25-7.01-.14-1-.52-1.92-1.07-2.69-.23-.94-.69-1.83-1.37-2.61-2.27-2.56-6.18-2.8-8.74-.53-.48.43-.96.85-1.43,1.28-.6.06-1.19.12-1.77.18-3.41.32-5.91,3.33-5.6,6.74.1,1.12.51,2.15,1.12,3Z"/>
      <path class="st1" d="M260.21,69.15c1.22,1.52,3.02,2.31,4.82,2.31,1.36,0,2.74-.45,3.88-1.37,1.98-1.6,3.95-3.21,5.84-4.8,2.62-2.2,2.96-6.1.76-8.73-2.2-2.62-6.1-2.96-8.73-.76-1.83,1.53-3.73,3.1-5.65,4.65-2.66,2.15-3.08,6.05-.93,8.71Z"/>
      <path class="st1" d="M289.5,33.63c.24.2.36.51.36.69,0,.02,0,.04,0,.06-.67,3.35,1.51,6.61,4.87,7.28.41.08.81.12,1.21.12,2.9,0,5.48-2.04,6.07-4.99.16-.81.24-1.64.24-2.47,0-3.88-1.72-7.57-4.72-10.12-2.61-2.22-6.51-1.9-8.73.7-2.22,2.6-1.9,6.51.7,8.73Z"/>
      <path class="st1" d="M214.83,66.64c.97,0,1.95-.23,2.87-.71,2.19-1.15,4.37-2.28,6.55-3.39,3.04-1.56,4.25-5.29,2.69-8.33-1.56-3.05-5.29-4.25-8.33-2.69-2.21,1.13-4.43,2.28-6.66,3.45-3.03,1.59-4.2,5.33-2.61,8.36,1.11,2.11,3.26,3.32,5.49,3.32Z"/>
      <path class="st1" d="M253.6,47.75c.85,0,1.71-.18,2.54-.55,2.26-1.02,4.5-2.01,6.74-2.99,3.13-1.37,4.57-5.02,3.2-8.15-1.37-3.13-5.02-4.57-8.15-3.2-2.24.98-4.55,2-6.86,3.04-3.12,1.4-4.51,5.07-3.11,8.19,1.03,2.29,3.29,3.65,5.65,3.65Z"/>
      <path class="st1" d="M187.73,115.76c1.12,2.06,3.25,3.23,5.44,3.23,1,0,2.02-.24,2.96-.76,2.18-1.19,4.4-2.41,6.58-3.65,2.98-1.68,4.04-5.45,2.36-8.44-1.68-2.98-5.45-4.04-8.44-2.36-2.13,1.2-4.3,2.4-6.43,3.56-3,1.64-4.11,5.4-2.48,8.4Z"/>
      <path class="st1" d="M148.75,134.22c1.01,2.34,3.29,3.73,5.68,3.73.82,0,1.66-.16,2.46-.51,2.28-.99,4.6-2.02,6.89-3.06,3.11-1.41,4.49-5.08,3.08-8.2-1.41-3.11-5.08-4.5-8.2-3.08-2.23,1.01-4.48,2.01-6.71,2.97-3.14,1.36-4.58,5.01-3.22,8.15Z"/>
      <path class="st1" d="M112.21,140.82c-3.27.99-5.12,4.45-4.13,7.72.81,2.67,3.27,4.4,5.92,4.4.6,0,1.2-.09,1.8-.27,2.38-.72,4.81-1.49,7.23-2.29,3.25-1.07,5.02-4.57,3.95-7.82-1.07-3.25-4.57-5.02-7.82-3.95-2.33.76-4.67,1.5-6.95,2.2Z"/>
      <path class="st1" d="M177.19,87.72c1.08,0,2.17-.28,3.17-.88,2.1-1.26,4.22-2.5,6.35-3.75,2.95-1.72,3.95-5.52,2.23-8.47-1.72-2.95-5.52-3.95-8.47-2.23-2.17,1.26-4.32,2.54-6.46,3.81-2.94,1.75-3.9,5.55-2.14,8.49,1.16,1.94,3.21,3.02,5.32,3.02Z"/>
      <path class="st1" d="M224.98,94.03c1.19,1.81,3.16,2.79,5.18,2.79,1.17,0,2.35-.33,3.4-1.02,2.09-1.38,4.19-2.78,6.26-4.19,2.83-1.92,3.56-5.78,1.64-8.6-1.92-2.83-5.78-3.56-8.6-1.64-2.01,1.37-4.07,2.74-6.1,4.09-2.86,1.88-3.65,5.72-1.77,8.58Z"/>
      <path class="st1" d="M140.78,110.84c1.19,0,2.4-.34,3.46-1.06,2.03-1.37,4.07-2.74,6.13-4.1,2.85-1.89,3.63-5.73,1.75-8.58-1.89-2.85-5.73-3.63-8.58-1.75-2.1,1.39-4.17,2.78-6.23,4.17-2.83,1.92-3.58,5.77-1.66,8.6,1.2,1.77,3.15,2.72,5.14,2.72Z"/>
      <path class="st1" d="M105.83,136.11c1.33,0,2.66-.42,3.79-1.3,1.91-1.48,3.88-2.99,5.85-4.47,2.73-2.06,3.27-5.95,1.21-8.68-2.06-2.73-5.95-3.27-8.68-1.21-2.01,1.52-4.02,3.05-5.97,4.56-2.7,2.1-3.2,5.99-1.1,8.69,1.22,1.58,3.05,2.4,4.9,2.4Z"/>
    </g>
  </g>
  <path class="st1" d="M491.15,172.21c-2.89-5.83-8.94-9.3-15.41-8.83-50.3,3.63-123.68,30.83-196.3,72.75-41.19,23.78-78.99,50.5-109.32,77.26-28.23,24.91-48.77,48.78-59.72,69.34-21.35,2.83-39.4,2.71-53.7-.37-14.41-3.11-24.27-9.1-29.3-17.81-2.14-3.7-6.87-4.97-10.57-2.83-3.7,2.14-4.97,6.87-2.83,10.57,7.31,12.66,20.58,21.14,39.45,25.21,8.49,1.83,18.05,2.75,28.61,2.75,6.75,0,13.91-.38,21.45-1.13-3.68,12.34-3.01,22.96,2.02,31.67,7.61,13.19,23.87,19.87,48.33,19.87.15,0,.31,0,.46,0,16.85-.06,37.6-3.38,60.81-9.7-9.72,19.26-7.44,31.91-2.99,39.62,5.15,8.92,14.77,14.47,28.6,16.5,3.93.58,8.18.87,12.74.87,9.2,0,19.64-1.18,31.19-3.53,34.52-7.01,75.93-23.81,116.61-47.29,3.7-2.14,4.97-6.87,2.83-10.57-2.14-3.7-6.87-4.97-10.57-2.83-39.26,22.67-79.02,38.84-111.95,45.53-29.33,5.96-50.28,3.56-56.04-6.42-4.53-7.85-.19-21.86,11.91-38.63,38.92-12.88,81.6-32.46,123.61-56.71,34.05-19.66,65.16-40.86,92.46-63.02h0c5.4-4.38,6.99-11.78,3.87-17.99-3.11-6.19-9.98-9.33-16.7-7.62-31.94,8.12-69.24,23.97-105.04,44.64-46.21,26.68-85.27,58.45-107.67,87.5-56.63,18.08-99.32,18.92-109.06,2.04-4.28-7.42-1.73-17.77,1.85-26.2,59.03-9.48,133.55-38.44,205.33-79.88,66.37-38.32,124.15-83.45,162.7-127.09,4.31-4.88,5.23-11.82,2.33-17.67ZM343.41,346.92c33.21-19.17,67.62-34.02,97.39-42.06-25.67,20.54-55.83,40.97-87.48,59.24-32.04,18.5-64.44,34.2-95.13,46.18,21.62-21.6,51.37-43.81,85.21-63.35ZM477.21,179.63h0c-37.47,42.42-93.88,86.43-158.84,123.93-65.35,37.73-132.77,64.85-187.94,75.83,26.06-39.24,85.22-88.55,156.75-129.85,70.69-40.81,141.59-67.25,189.67-70.72.03,0,.06,0,.09,0,.12,0,.21.04.32.26.15.31.05.43-.06.55Z"/>
</svg>