<?xml version="1.0" encoding="UTF-8"?>
<svg id="Camada_1" xmlns="http://www.w3.org/2000/svg" version="1.1" viewBox="0 0 500 500">
  <!-- Generator: Adobe Illustrator 30.3.0, SVG Export Plug-In . SVG Version: 2.1.3 Build 182)  -->
  <defs>
    <style>
      .st0 {
        opacity: .27;
      }

      .st1 {
        fill: #9aa2ac;
      }
    </style>
  </defs>
  <g class="st0">
    <path class="st1" d="M11.84,264.66c1.17,1.89,3.19,2.93,5.26,2.93,1.1,0,2.22-.3,3.23-.92,2.9-1.79,3.8-5.59,2.01-8.49-.08-.12-.15-.25-.23-.38-.78-1.36-1.39-2.85-1.79-4.43-.84-3.3-4.2-5.29-7.5-4.45-3.3.84-5.29,4.2-4.45,7.5.68,2.67,1.71,5.2,3.06,7.54.13.23.27.46.41.69Z"/>
    <path class="st1" d="M18.08,227.7c.9.46,1.85.67,2.8.67,2.25,0,4.41-1.23,5.5-3.37.97-1.91,2.06-3.89,3.24-5.88,1.73-2.93.76-6.71-2.18-8.45-2.93-1.73-6.71-.75-8.45,2.18-1.3,2.21-2.52,4.41-3.6,6.55-1.55,3.04-.34,6.75,2.69,8.3Z"/>
    <path class="st1" d="M44.45,194.76c1.73,0,3.45-.72,4.67-2.13,1.48-1.71,3.03-3.46,4.61-5.19,2.29-2.52,2.11-6.42-.41-8.71-2.52-2.29-6.42-2.11-8.71.41-1.64,1.81-3.26,3.63-4.81,5.42-2.23,2.58-1.95,6.47.63,8.7,1.17,1.01,2.6,1.5,4.03,1.5Z"/>
    <path class="st1" d="M252.6,215.8c1.02,0,2.06-.26,3.02-.79,2.2-1.24,4.41-2.49,6.62-3.76,2.95-1.7,3.97-5.47,2.28-8.42-1.7-2.95-5.46-3.97-8.42-2.28-2.18,1.25-4.35,2.48-6.52,3.7-2.97,1.67-4.02,5.43-2.36,8.4,1.13,2.01,3.23,3.15,5.38,3.15Z"/>
    <path class="st1" d="M413.94,69.75c0,.11-.01.23-.03.34-.69,3.33,1.45,6.6,4.78,7.29.42.09.84.13,1.26.13,2.86,0,5.43-2,6.03-4.91.19-.93.29-1.89.29-2.85,0-3.47-1.28-6.84-3.6-9.5-2.24-2.57-6.14-2.83-8.7-.59-2.57,2.24-2.83,6.14-.59,8.7.35.4.55.9.55,1.38Z"/>
    <path class="st1" d="M213.81,236.15c.91,0,1.83-.2,2.7-.63,2.27-1.11,4.55-2.23,6.83-3.38,3.05-1.53,4.28-5.23,2.75-8.28-1.53-3.05-5.23-4.28-8.28-2.75-2.24,1.12-4.48,2.23-6.71,3.32-3.06,1.49-4.33,5.19-2.84,8.25,1.07,2.19,3.26,3.46,5.55,3.46Z"/>
    <path class="st1" d="M182.14,154.97c-2.14,1.38-4.26,2.77-6.37,4.17-2.84,1.88-3.62,5.7-1.74,8.55,1.19,1.79,3.15,2.77,5.15,2.77,1.17,0,2.35-.33,3.4-1.02,2.07-1.37,4.16-2.74,6.27-4.1,2.86-1.85,3.68-5.67,1.83-8.53-1.85-2.86-5.67-3.68-8.53-1.83Z"/>
    <path class="st1" d="M145.77,180c-2.06,1.51-4.1,3.02-6.13,4.53-2.73,2.04-3.29,5.9-1.25,8.63,1.21,1.62,3.07,2.47,4.94,2.47,1.28,0,2.58-.4,3.69-1.23,1.99-1.49,4-2.97,6.02-4.45,2.75-2.01,3.35-5.87,1.34-8.62-2.01-2.75-5.87-3.35-8.62-1.34Z"/>
    <path class="st1" d="M258.6,110.96c-2.25,1.14-4.51,2.3-6.77,3.48-3.02,1.57-4.2,5.29-2.63,8.32,1.1,2.11,3.25,3.33,5.48,3.33.96,0,1.93-.22,2.84-.7,2.23-1.16,4.45-2.3,6.67-3.42,3.04-1.54,4.25-5.25,2.71-8.29-1.54-3.04-5.25-4.25-8.29-2.71Z"/>
    <path class="st1" d="M168.13,250.27c.98,2.39,3.28,3.83,5.71,3.83.78,0,1.57-.15,2.33-.46,2.36-.96,4.72-1.95,7.04-2.93,3.14-1.33,4.6-4.95,3.27-8.08s-4.95-4.6-8.08-3.27c-2.27.96-4.6,1.93-6.91,2.88-3.15,1.29-4.66,4.89-3.37,8.04Z"/>
    <path class="st1" d="M388.59,109.99c1.2,1.15,2.73,1.72,4.27,1.72,1.62,0,3.24-.64,4.45-1.9,1.8-1.87,3.57-3.76,5.27-5.62,2.3-2.51,2.13-6.41-.39-8.71-2.51-2.3-6.41-2.13-8.71.39-1.63,1.78-3.34,3.6-5.07,5.41-2.36,2.46-2.28,6.36.18,8.72Z"/>
    <path class="st1" d="M376.1,76.33c.57,0,1.15-.08,1.72-.25,2.4-.7,4.81-1.38,7.18-2.02,3.29-.9,5.22-4.29,4.33-7.57-.9-3.29-4.29-5.22-7.57-4.33-2.42.66-4.9,1.36-7.36,2.07-3.27.95-5.15,4.37-4.21,7.64.78,2.7,3.25,4.45,5.92,4.45Z"/>
    <path class="st1" d="M126.8,264.76c.83,2.63,3.26,4.32,5.88,4.32.61,0,1.24-.09,1.86-.29,2.39-.75,4.84-1.55,7.28-2.36,3.23-1.08,4.98-4.57,3.9-7.8-1.08-3.23-4.57-4.98-7.8-3.9-2.38.79-4.77,1.57-7.09,2.3-3.25,1.02-5.05,4.49-4.03,7.74Z"/>
    <path class="st1" d="M360.85,141.6c1.41,0,2.83-.48,3.99-1.46,1.97-1.67,3.92-3.35,5.79-4.99,2.56-2.24,2.83-6.14.59-8.7-2.24-2.57-6.14-2.83-8.7-.59-1.83,1.6-3.73,3.24-5.66,4.87-2.6,2.2-2.92,6.1-.71,8.69,1.22,1.44,2.96,2.18,4.71,2.18Z"/>
    <path class="st1" d="M290.18,193.29c1.13,0,2.28-.31,3.31-.97,2.15-1.37,4.28-2.75,6.4-4.13,2.85-1.86,3.66-5.68,1.79-8.54-1.86-2.85-5.68-3.66-8.54-1.79-2.08,1.36-4.18,2.71-6.29,4.06-2.87,1.83-3.71,5.65-1.88,8.52,1.18,1.84,3.17,2.85,5.21,2.85Z"/>
    <path class="st1" d="M334.57,90.22c.72,0,1.45-.13,2.17-.4,2.32-.87,4.69-1.75,7.02-2.59,3.2-1.16,4.86-4.7,3.7-7.9-1.16-3.2-4.7-4.86-7.9-3.7-2.38.86-4.78,1.75-7.15,2.64-3.19,1.2-4.8,4.76-3.6,7.94.93,2.47,3.28,4,5.77,4Z"/>
    <path class="st1" d="M298.52,92.08c-2.31,1.01-4.63,2.04-6.96,3.09-3.11,1.4-4.49,5.05-3.09,8.16,1.03,2.28,3.27,3.64,5.63,3.64.85,0,1.71-.18,2.53-.55,2.29-1.03,4.57-2.04,6.85-3.04,3.12-1.37,4.54-5,3.17-8.12-1.37-3.12-5-4.54-8.12-3.17Z"/>
    <path class="st1" d="M326.38,168.62c1.26,0,2.53-.38,3.63-1.18,2.05-1.5,4.12-3.02,6.14-4.52,2.73-2.04,3.29-5.9,1.26-8.63-2.04-2.73-5.9-3.29-8.63-1.26-1.98,1.48-4.01,2.97-6.02,4.44-2.75,2.01-3.36,5.86-1.35,8.62,1.21,1.66,3.09,2.54,4.99,2.54Z"/>
    <path class="st1" d="M219.8,131.97l-.92.53c-1.89,1.09-3.78,2.19-5.65,3.29-2.94,1.73-3.92,5.51-2.19,8.44,1.15,1.96,3.21,3.04,5.32,3.04,1.06,0,2.14-.27,3.12-.85,1.85-1.09,3.7-2.17,5.57-3.25l.91-.53c2.95-1.7,3.96-5.47,2.26-8.42s-5.47-3.97-8.42-2.26Z"/>
    <path class="st1" d="M84.16,274.72c.54,2.98,3.13,5.08,6.06,5.08.36,0,.73-.03,1.1-.1,2.48-.45,5.03-.94,7.58-1.47,3.33-.7,5.47-3.96,4.78-7.3-.7-3.33-3.96-5.48-7.3-4.78-2.44.51-4.88.98-7.25,1.41-3.35.6-5.58,3.81-4.98,7.16Z"/>
    <path class="st1" d="M110.92,207.2c-1.95,1.63-3.91,3.28-5.82,4.93-2.59,2.22-2.89,6.11-.67,8.7,1.22,1.42,2.95,2.15,4.69,2.15,1.42,0,2.85-.49,4.01-1.48,1.88-1.61,3.8-3.24,5.71-4.83,2.61-2.18,2.96-6.07.78-8.69-2.18-2.61-6.07-2.96-8.69-.78Z"/>
    <path class="st1" d="M86.77,236.96c-2.39-2.43-6.29-2.47-8.72-.08-1.84,1.8-3.66,3.62-5.42,5.41-2.39,2.43-2.36,6.33.06,8.72,1.2,1.18,2.77,1.78,4.33,1.78s3.19-.61,4.39-1.84c1.71-1.74,3.49-3.51,5.28-5.26,2.43-2.39,2.47-6.29.08-8.72Z"/>
    <path class="st1" d="M44.23,284.48c1.12.86,2.44,1.28,3.76,1.28,1.85,0,3.68-.83,4.89-2.41.12-.15.24-.31.36-.46.25.01.51.02.76.03,3.4.11,6.26-2.55,6.38-5.95.06-1.61-.52-3.1-1.49-4.23-.2-1.51-.95-2.95-2.22-3.98-2.64-2.15-6.53-1.74-8.68.9-.12.15-.24.3-.37.45-.13-.01-.26-.03-.39-.04-3.38-.39-6.44,2.04-6.83,5.42-.21,1.78.38,3.47,1.46,4.73.17,1.63.97,3.18,2.37,4.26Z"/>
    <path class="st1" d="M24,304.68c-1.19,2.18-2.31,4.36-3.35,6.49-1.49,3.06-.21,6.75,2.85,8.24.87.42,1.79.62,2.69.62,2.29,0,4.49-1.28,5.55-3.47.95-1.95,1.99-3.96,3.08-5.97,1.63-2.99.53-6.74-2.46-8.37-2.99-1.63-6.74-.53-8.37,2.46Z"/>
    <path class="st1" d="M17.31,359.11c3.39-.28,5.92-3.25,5.65-6.65-.09-1.09-.13-2.22-.13-3.36,0-.91.03-1.85.08-2.78.2-3.4-2.39-6.32-5.79-6.53-3.39-.21-6.32,2.39-6.53,5.79-.07,1.17-.11,2.35-.11,3.51,0,1.47.06,2.94.18,4.37.26,3.22,2.96,5.67,6.14,5.67.17,0,.34,0,.51-.02Z"/>
    <path class="st1" d="M143.79,16.32c1.06,0,2.14-.27,3.12-.85,1.09-.64,2.19-1.28,3.29-1.92,2.95-1.7,3.96-5.47,2.26-8.42-1.7-2.95-5.47-3.96-8.42-2.26-1.13.65-2.25,1.31-3.37,1.96-2.94,1.72-3.92,5.5-2.2,8.44,1.15,1.96,3.21,3.05,5.32,3.05Z"/>
    <path class="st1" d="M77.31,63.35c1.43,0,2.86-.49,4.03-1.5,1.71-1.48,3.49-2.98,5.28-4.46,2.62-2.18,2.98-6.06.81-8.69-2.18-2.62-6.06-2.98-8.69-.81-1.85,1.54-3.69,3.09-5.46,4.62-2.58,2.23-2.87,6.12-.64,8.7,1.22,1.41,2.94,2.14,4.67,2.14Z"/>
    <path class="st1" d="M27.84,147c-2,2.76-1.39,6.61,1.36,8.61,2.18,1.59,4.69,2.96,7.45,4.08.76.31,1.55.46,2.32.46,2.43,0,4.74-1.45,5.71-3.84,1.28-3.15-.23-6.75-3.39-8.04-1.84-.75-3.47-1.64-4.85-2.64-2.75-2-6.61-1.39-8.61,1.36Z"/>
    <path class="st1" d="M24.57,125.86c.68.24,1.37.35,2.06.35,2.54,0,4.92-1.58,5.81-4.11.66-1.88,1.49-3.85,2.46-5.87,1.47-3.07.17-6.76-2.9-8.23-3.07-1.47-6.75-.17-8.23,2.9-1.16,2.41-2.15,4.8-2.96,7.09-1.14,3.21.55,6.74,3.76,7.87Z"/>
    <path class="st1" d="M109.5,38.35c1.23,0,2.46-.37,3.54-1.12,1.86-1.31,3.77-2.63,5.7-3.95,2.81-1.92,3.54-5.75,1.62-8.57-1.92-2.82-5.76-3.54-8.57-1.62-1.98,1.35-3.95,2.71-5.86,4.05-2.79,1.96-3.46,5.81-1.5,8.59,1.2,1.71,3.11,2.62,5.05,2.62Z"/>
    <path class="st1" d="M44.3,90.47c1.16,1,2.6,1.49,4.02,1.49,1.73,0,3.46-.73,4.68-2.14,1.45-1.68,2.97-3.4,4.54-5.1,2.3-2.51,2.14-6.41-.37-8.71-2.51-2.3-6.41-2.14-8.71.37-1.66,1.8-3.27,3.62-4.81,5.4-2.22,2.58-1.93,6.48.65,8.7Z"/>
    <path class="st1" d="M67.27,160.62c.23,1.01.71,1.97,1.46,2.79,1.22,1.33,2.88,2,4.55,2,1.49,0,2.98-.53,4.16-1.62.46-.42.93-.84,1.39-1.26.66-.09,1.33-.18,1.99-.27,3.37-.48,5.71-3.61,5.23-6.98-.14-1-.52-1.91-1.06-2.68-.23-.93-.69-1.83-1.37-2.6-2.26-2.55-6.16-2.79-8.71-.53-.48.43-.95.85-1.43,1.27-.59.06-1.18.12-1.76.18-3.39.31-5.89,3.32-5.57,6.71.1,1.12.51,2.14,1.11,2.99Z"/>
    <path class="st1" d="M260.16,70.92c1.22,1.51,3,2.3,4.8,2.3,1.36,0,2.73-.45,3.87-1.37,1.98-1.59,3.93-3.2,5.81-4.78,2.61-2.19,2.95-6.08.76-8.69-2.19-2.61-6.08-2.95-8.69-.76-1.82,1.53-3.71,3.09-5.63,4.63-2.65,2.14-3.07,6.02-.93,8.67Z"/>
    <path class="st1" d="M289.34,35.54c.24.2.36.5.36.69,0,.02,0,.04,0,.06-.66,3.34,1.51,6.59,4.85,7.25.41.08.81.12,1.21.12,2.88,0,5.46-2.03,6.04-4.97.16-.81.24-1.64.24-2.46,0-3.86-1.71-7.53-4.7-10.08-2.59-2.21-6.49-1.9-8.69.7-2.21,2.59-1.9,6.49.7,8.69Z"/>
    <path class="st1" d="M214.98,68.41c.96,0,1.94-.23,2.86-.71,2.18-1.14,4.35-2.27,6.52-3.38,3.03-1.55,4.23-5.27,2.68-8.3-1.55-3.03-5.27-4.23-8.3-2.68-2.21,1.13-4.42,2.27-6.63,3.43-3.02,1.58-4.18,5.31-2.6,8.33,1.1,2.1,3.25,3.31,5.47,3.31Z"/>
    <path class="st1" d="M253.58,49.6c.85,0,1.71-.17,2.53-.54,2.25-1.01,4.48-2,6.71-2.98,3.12-1.36,4.55-5,3.18-8.12-1.36-3.12-5-4.55-8.12-3.18-2.23.98-4.53,1.99-6.83,3.03-3.11,1.4-4.49,5.05-3.09,8.16,1.03,2.28,3.28,3.64,5.63,3.64Z"/>
    <path class="st1" d="M187.98,117.33c1.12,2.05,3.24,3.22,5.42,3.22,1,0,2.01-.24,2.94-.75,2.17-1.18,4.38-2.4,6.55-3.63,2.97-1.67,4.02-5.43,2.35-8.4-1.67-2.97-5.43-4.02-8.4-2.35-2.13,1.2-4.28,2.39-6.4,3.54-2.99,1.63-4.1,5.37-2.47,8.37Z"/>
    <path class="st1" d="M149.16,135.71c1.01,2.33,3.28,3.71,5.66,3.71.82,0,1.65-.16,2.45-.51,2.27-.99,4.58-2.01,6.86-3.05,3.1-1.41,4.48-5.06,3.07-8.16-1.41-3.1-5.06-4.48-8.16-3.07-2.22,1.01-4.47,2-6.68,2.96-3.12,1.36-4.56,4.99-3.2,8.11Z"/>
    <path class="st1" d="M112.78,142.29c-3.26.99-5.1,4.43-4.11,7.69.81,2.66,3.25,4.38,5.9,4.38.59,0,1.2-.09,1.79-.27,2.37-.72,4.79-1.48,7.2-2.28,3.24-1.06,5-4.55,3.93-7.79-1.06-3.24-4.55-5-7.79-3.93-2.32.76-4.65,1.5-6.93,2.19Z"/>
    <path class="st1" d="M177.49,89.4c1.08,0,2.16-.28,3.15-.87,2.1-1.25,4.2-2.49,6.33-3.73,2.94-1.72,3.94-5.49,2.22-8.44-1.72-2.94-5.49-3.94-8.44-2.22-2.16,1.26-4.3,2.52-6.43,3.8-2.93,1.74-3.88,5.53-2.14,8.46,1.15,1.93,3.2,3.01,5.3,3.01Z"/>
    <path class="st1" d="M225.08,95.69c1.19,1.8,3.15,2.78,5.16,2.78,1.16,0,2.34-.33,3.39-1.02,2.08-1.37,4.18-2.77,6.23-4.17,2.82-1.92,3.55-5.75,1.63-8.57-1.92-2.82-5.75-3.55-8.57-1.63-2,1.36-4.05,2.73-6.08,4.07-2.84,1.87-3.63,5.7-1.76,8.54Z"/>
    <path class="st1" d="M141.23,112.43c1.19,0,2.39-.34,3.45-1.06,2.02-1.36,4.05-2.73,6.1-4.08,2.84-1.88,3.62-5.71,1.74-8.55-1.88-2.84-5.71-3.62-8.55-1.74-2.09,1.38-4.16,2.77-6.21,4.15-2.82,1.91-3.56,5.74-1.65,8.56,1.19,1.76,3.14,2.71,5.11,2.71Z"/>
    <path class="st1" d="M106.42,137.6c1.32,0,2.65-.42,3.77-1.29,1.9-1.47,3.86-2.97,5.82-4.46,2.72-2.05,3.26-5.92,1.2-8.64-2.05-2.72-5.92-3.26-8.64-1.2-2,1.51-4,3.04-5.94,4.55-2.69,2.09-3.18,5.96-1.1,8.65,1.22,1.57,3.04,2.39,4.88,2.39Z"/>
  </g>
  <path class="st1" d="M490.16,173.55c-2.87-5.81-8.9-9.26-15.34-8.79-50.09,3.61-123.17,30.7-195.49,72.45-41.02,23.68-78.67,50.29-108.87,76.94-28.11,24.81-48.57,48.58-59.47,69.05-21.26,2.82-39.24,2.7-53.48-.37-14.35-3.09-24.17-9.06-29.18-17.74-2.13-3.69-6.84-4.95-10.53-2.82-3.69,2.13-4.95,6.84-2.82,10.53,7.28,12.61,20.5,21.06,39.29,25.11,8.46,1.82,17.98,2.73,28.49,2.73,6.72,0,13.85-.38,21.36-1.12-3.66,12.29-3,22.86,2.01,31.54,7.58,13.13,23.78,19.79,48.14,19.79.15,0,.31,0,.46,0,16.78-.06,37.45-3.37,60.56-9.66-9.68,19.18-7.41,31.78-2.98,39.45,5.13,8.88,14.71,14.41,28.48,16.44,3.92.58,8.15.86,12.69.86,9.16,0,19.56-1.17,31.06-3.51,34.38-6.99,75.62-23.71,116.13-47.1,3.69-2.13,4.95-6.84,2.82-10.53-2.13-3.69-6.84-4.95-10.53-2.82-39.1,22.58-78.69,38.68-111.49,45.34-29.21,5.93-50.07,3.55-55.81-6.39-4.51-7.82-.19-21.77,11.86-38.47,38.76-12.83,81.27-32.32,123.1-56.48,33.91-19.58,64.89-40.69,92.08-62.76h0c5.38-4.36,6.96-11.73,3.86-17.92-3.1-6.17-9.94-9.29-16.63-7.59-31.81,8.08-68.96,23.87-104.61,44.45-46.02,26.57-84.92,58.21-107.22,87.14-56.4,18-98.91,18.84-108.62,2.03-4.26-7.39-1.72-17.7,1.85-26.09,58.79-9.45,133-38.28,204.48-79.55,66.1-38.16,123.64-83.11,162.03-126.57,4.29-4.86,5.21-11.77,2.32-17.59ZM343.02,347.54c33.07-19.09,67.34-33.88,96.99-41.89-25.56,20.45-55.6,40.8-87.12,59-31.91,18.42-64.17,34.06-94.74,45.99,21.54-21.51,51.16-43.63,84.86-63.09ZM476.28,180.94h0c-37.32,42.24-93.49,86.08-158.19,123.42-65.08,37.57-132.23,64.58-187.16,75.52,25.96-39.08,84.87-88.19,156.1-129.32,70.4-40.65,141.01-66.97,188.89-70.43.03,0,.06,0,.09,0,.12,0,.21.04.32.26.15.31.05.42-.06.55Z"/>
</svg>